<svg width="71" height="71" viewBox="0 0 71 71" fill="none" xmlns="http://www.w3.org/2000/svg">
  <g clip-path="url(#clip0_619_8631)">
    <path
      d="M57.94 70.44C64.84 70.44 70.43 64.84 70.44 57.94V12.5C70.44 5.6 64.84 0.01 57.94 0H12.5C5.6 0 0 5.6 0 12.5V57.94C0 64.84 5.6 70.43 12.5 70.44H57.94ZM65.44 12.5V57.94C65.44 62.08 62.08 65.43 57.94 65.44H27.22V5H57.94C62.08 5 65.43 8.36 65.44 12.5ZM5 57.94V12.5C5 8.36 8.36 5.01 12.5 5H22.22V65.44H12.5C8.36 65.44 5.01 62.08 5 57.94Z"
      fill="black" />
    <path
      d="M46.3198 35.1512L57.1098 24.3612C58.0598 23.3812 58.0398 21.8212 57.0698 20.8612C56.0998 19.9012 54.5398 19.8812 53.5598 20.8312L41.0098 33.3812C40.5398 33.8512 40.2798 34.4912 40.2798 35.1512C40.2798 35.8112 40.5398 36.4512 41.0098 36.9212L53.5598 49.4712C54.0198 49.9512 54.6698 50.2312 55.3398 50.2412C56.0098 50.2412 56.6598 49.9812 57.1298 49.5112C57.6098 49.0412 57.8698 48.3912 57.8598 47.7212C57.8598 47.0512 57.5798 46.4112 57.0998 45.9412L46.3098 35.1512L46.3198 35.1512Z"
      fill="black" />
  </g>
  <defs>
    <clipPath id="clip0_619_8631">
      <rect width="70.44" height="70.44" fill="white" />
    </clipPath>
  </defs>
</svg>