<?xml version="1.0" encoding="UTF-8"?>
<svg xmlns="http://www.w3.org/2000/svg" width="54" height="61" viewBox="0 0 54 61" fill="none">
  <path d="M36.3 18.6702C34.7499 18.6702 33.2814 19.2335 32.1392 20.3602C30.997 21.4063 30.4259 22.8549 30.4259 24.4644C30.4259 25.9934 30.997 27.442 32.1392 28.5686C33.1998 29.6953 34.6683 30.2586 36.3 30.2586C39.4818 30.2586 42.0925 27.6834 42.1741 24.5449C42.1741 21.3259 39.5634 18.7507 36.3816 18.7507L36.3 18.6702ZM39.0739 27.281C38.3396 28.0053 37.279 28.4077 36.2184 28.4077C35.1578 28.4077 34.0972 28.0053 33.363 27.2005C32.6287 26.3958 32.2208 25.4301 32.2208 24.3839C32.2208 23.3377 32.6287 22.2916 33.4446 21.5673C34.1788 20.843 35.2394 20.4406 36.3 20.4406C38.5844 20.4406 40.3792 22.2916 40.3792 24.4644C40.3792 25.5106 39.9713 26.5567 39.1554 27.281H39.0739ZM43.2347 15.3707C43.2347 15.3707 43.3162 14.8879 43.2347 14.7269C43.1531 14.566 42.9899 14.3245 42.7451 14.2441L38.9923 12.715C38.5028 12.5541 38.0133 12.715 37.8501 13.1979L37.4422 14.1636C36.7079 14.0831 35.8921 14.0831 35.0762 14.1636L34.6683 13.1979C34.6683 13.1979 34.4236 12.7955 34.1788 12.715C33.9341 12.6346 33.6893 12.6346 33.5261 12.715L29.7733 14.2441C29.2838 14.405 29.1206 14.9683 29.2838 15.3707L29.6917 16.3364C29.039 16.8193 28.5495 17.3826 28.06 17.9459L27.081 17.5435C26.5915 17.3826 26.102 17.5435 25.9388 18.0264L24.3887 21.7282C24.2256 22.2111 24.3887 22.6939 24.8782 22.8549L25.8572 23.2573C25.7757 23.9815 25.7757 24.7863 25.8572 25.591L24.8782 25.9934C24.8782 25.9934 24.4703 26.2348 24.3887 26.4763C24.3071 26.7177 24.3071 26.9591 24.3887 27.1201L25.9388 30.8219C26.102 31.3048 26.6731 31.4657 27.081 31.3048L28.06 30.9024C28.5495 31.5462 29.1206 32.029 29.6917 32.5119L29.2838 33.4776C29.2838 33.4776 29.2022 33.9604 29.2838 34.1214C29.3654 34.2823 29.5285 34.5238 29.7733 34.6042L33.5261 36.1332C34.0157 36.2942 34.5052 36.1332 34.6683 35.6504L35.0762 34.6847C35.8105 34.7652 36.6263 34.7652 37.4422 34.6847L37.8501 35.6504C37.8501 35.6504 38.3396 36.2137 38.6659 36.2137C38.7475 36.2137 38.9107 36.2137 38.9923 36.2137L42.7451 34.6847C42.7451 34.6847 43.1531 34.4433 43.2347 34.2019C43.3162 33.9604 43.3162 33.719 43.2347 33.5581L42.8267 32.5924C43.4794 32.1095 43.9689 31.5462 44.4584 30.9829L45.4374 31.3852C45.9269 31.5462 46.4164 31.3852 46.5796 30.9024L48.1297 27.2005C48.1297 27.2005 48.2113 26.7177 48.1297 26.5567C48.0481 26.3958 47.8849 26.1544 47.6402 26.0739L46.6612 25.6715C46.7428 24.9472 46.7428 24.1425 46.6612 23.3377L47.6402 22.9354C48.1297 22.7744 48.2929 22.2111 48.1297 21.8087L46.5796 18.1069C46.5796 18.1069 46.3348 17.7045 46.0901 17.624C45.8453 17.5435 45.6006 17.5435 45.4374 17.624L44.4584 18.0264C43.9689 17.3826 43.3978 16.8997 42.8267 16.4169L43.2347 15.4512V15.3707ZM43.3978 19.5554C43.3978 19.5554 44.0505 20.0383 44.4584 19.8773L45.2743 19.5554L46.1717 21.6478L45.3558 21.9697C45.3558 21.9697 44.7847 22.533 44.7847 22.9354C44.9479 23.9815 44.9479 25.0277 44.7847 25.9934C44.7847 26.3958 44.9479 26.7982 45.3558 26.9591L46.1717 27.281L45.2743 29.3734L44.4584 29.0515C44.4584 29.0515 43.6426 29.0515 43.3978 29.3734C42.8267 30.2586 42.0109 30.9829 41.195 31.5462C40.8687 31.7876 40.7055 32.19 40.8687 32.5924L41.195 33.3971L39.0739 34.2823L38.7475 33.4776C38.7475 33.4776 38.258 32.9143 37.9317 32.9143C37.9317 32.9143 37.8501 32.9143 37.7685 32.9143C36.7079 33.0752 35.6473 33.0752 34.6683 32.9143C34.2604 32.9143 33.8525 33.0752 33.6893 33.4776L33.363 34.2823L31.2418 33.3971L31.5681 32.5924C31.5681 32.5924 31.5681 31.7876 31.2418 31.5462C30.3444 30.9829 29.6101 30.1781 29.039 29.3734C28.7943 29.0515 28.3863 28.8905 27.9784 29.0515L27.1626 29.3734L26.2652 27.281L27.081 26.9591C27.081 26.9591 27.6521 26.3958 27.6521 25.9934C27.4889 24.9472 27.4889 23.9011 27.6521 22.9354C27.6521 22.533 27.4889 22.1306 27.081 21.9697L26.2652 21.6478L27.1626 19.5554L27.9784 19.8773C27.9784 19.8773 28.7943 19.8773 29.039 19.5554C29.6101 18.6702 30.4259 17.9459 31.2418 17.3826C31.5681 17.1412 31.7313 16.7388 31.5681 16.3364L31.2418 15.5317L33.363 14.6464L33.6893 15.4512C33.6893 15.4512 34.2604 16.0145 34.6683 16.0145C35.7289 15.8536 36.7895 15.8536 37.7685 16.0145C38.1764 16.0145 38.5844 15.8536 38.7475 15.4512L39.0739 14.6464L41.195 15.5317L40.8687 16.3364C40.8687 16.3364 40.8687 17.1412 41.195 17.3826C42.0925 17.9459 42.8267 18.7507 43.3978 19.5554ZM20.8806 15.6926C17.4541 21.5673 17.7804 28.8905 21.6964 34.4433C21.3701 34.9261 21.2069 35.4894 21.2069 36.1332C21.2069 36.938 21.5333 37.7427 22.1044 38.3061C22.6755 38.8694 23.4913 39.1913 24.3071 39.1913C25.123 39.1913 25.8572 38.8694 26.4283 38.3061C26.9994 37.7427 27.3258 36.938 27.3258 36.1332C27.3258 35.3285 26.9994 34.5237 26.4283 33.9604C25.8572 33.3971 25.0414 33.0752 24.2256 33.0752C23.8176 33.0752 23.4097 33.1557 23.0018 33.3166C19.5753 28.3272 19.3305 21.8892 22.3491 16.5778C26.3467 9.73747 34.9131 6.92085 42.2556 9.97889C42.7451 10.1398 43.2347 9.97889 43.3978 9.49604C43.561 9.01319 43.3978 8.53034 42.9083 8.36939C34.7499 4.98945 25.2046 8.20844 20.799 15.7731L20.8806 15.6926ZM24.2256 34.7652C24.2256 34.7652 24.8782 34.9261 25.123 35.1675C25.3677 35.409 25.5309 35.7309 25.5309 36.0528C25.5309 36.3747 25.3677 36.6966 25.123 36.938C24.6335 37.4208 23.8176 37.4208 23.2465 36.938C23.0018 36.6966 22.8386 36.3747 22.8386 36.0528C22.8386 35.7309 23.0018 35.409 23.2465 35.1675C23.4913 34.9261 23.8176 34.7652 24.144 34.7652H24.2256ZM50.7404 14.4855C51.5562 13.2784 51.3931 11.7493 50.3325 10.7032C49.1087 9.49604 47.2323 9.49604 46.0085 10.7032C44.7847 11.9103 44.7847 13.7612 46.0085 14.9683C46.5796 15.5317 47.3954 15.8536 48.2113 15.8536C48.6192 15.8536 49.0271 15.7731 49.435 15.6121C52.8616 20.6016 53.1879 27.0396 50.0877 32.3509C47.1507 37.3404 41.8477 40.157 36.3 40.157C34.2604 40.157 32.2208 39.7546 30.1812 38.9499C29.6917 38.7889 29.2022 38.9499 29.039 39.4327C28.8758 39.9156 29.039 40.3984 29.5285 40.5594C31.7313 41.4446 34.0156 41.9274 36.3 41.9274C42.4188 41.9274 48.3744 38.7084 51.6378 33.2362C55.0643 27.3615 54.738 20.0383 50.822 14.4855H50.7404ZM47.3139 13.6807C46.8244 13.1979 46.8244 12.3931 47.3139 11.8298C47.8034 11.2665 48.6192 11.347 49.1903 11.8298C49.6798 12.3127 49.6798 13.1174 49.1903 13.6807C48.7008 14.2441 47.8849 14.1636 47.3139 13.6807ZM45.1927 42.3298C44.7847 42.1689 44.2137 42.3298 44.0505 42.7322C43.1531 44.6636 41.603 46.434 39.237 47.9631C38.9923 48.124 38.8291 48.3654 38.8291 48.6873V53.9987H20.1464V51.9063C20.1464 51.0211 19.7384 50.1359 19.0858 49.5726C18.4331 49.0092 17.4541 48.6873 16.5567 48.8483L10.2747 49.7335C9.45884 49.8945 8.643 49.653 7.99032 49.0897C7.33765 48.5264 7.01131 47.8021 7.01131 46.9169V39.6741C7.01131 38.7889 6.60339 37.9037 5.95072 37.2599C5.29805 36.6161 4.40062 36.2942 3.5032 36.2942C2.93211 36.2942 2.36102 35.9723 2.03468 35.4894C1.70835 35.0066 1.70835 34.3628 1.9531 33.88L4.64537 28.2467C4.80854 27.8443 4.97171 27.3615 4.97171 26.7982V22.6939C5.0533 11.186 14.4355 1.77045 26.0204 1.77045C29.7733 1.77045 33.5261 2.73615 36.7079 4.66755C37.1158 4.90897 37.6869 4.74802 37.9317 4.34565C38.1764 3.94327 38.0133 3.37995 37.6054 3.13852C34.1788 1.04617 30.0996 0 26.0204 0C13.4565 0 3.25845 10.2203 3.25845 22.7744V26.8786C3.25845 26.8786 3.17686 27.3615 3.01369 27.6029L0.321418 33.1557C-0.168087 34.2018 -0.0865025 35.4894 0.484586 36.4552C1.13726 37.4208 2.19785 38.0646 3.42161 38.0646C3.91112 38.0646 4.31904 38.2256 4.64537 38.5475C4.97171 38.8694 5.13488 39.2718 5.13488 39.7546V46.9974C5.13488 48.3654 5.70597 49.5726 6.76656 50.4578C7.82715 51.343 9.1325 51.7454 10.5194 51.504L16.8014 50.6187C16.8014 50.6187 17.6172 50.6187 17.862 50.9406C18.1883 51.1821 18.3515 51.5844 18.3515 51.9868V54.0792H18.0252C16.1487 54.0792 14.517 55.6082 14.517 57.5396C14.517 59.471 16.0671 61 18.0252 61H40.8687C42.7451 61 44.3768 59.471 44.3768 57.5396C44.3768 55.6082 42.8267 54.0792 40.8687 54.0792H40.5424V49.2507C42.9083 47.6412 44.6216 45.7098 45.6006 43.6174C45.7638 43.215 45.6006 42.6517 45.1927 42.4908V42.3298ZM42.6636 57.3786C42.6636 58.2639 41.9293 59.0686 40.9503 59.0686H18.1067C17.2093 59.0686 16.3935 58.3443 16.3935 57.3786C16.3935 56.4129 17.1277 55.6887 18.1067 55.6887H40.9503C41.8477 55.6887 42.6636 56.4129 42.6636 57.3786Z" fill="#1075FD"/>
</svg>