<?xml version="1.0" encoding="UTF-8"?>
<svg xmlns="http://www.w3.org/2000/svg" width="64" height="52" viewBox="0 0 64 52" fill="none">
  <path
    d="M24.5652 4.88008C24.5652 4.88008 24.9102 5.43293 24.7032 5.70935L20.218 11.998C20.218 11.998 19.9419 12.2053 19.8039 12.2744C19.8039 12.2744 19.5279 12.2744 19.3899 12.1362L17.3198 10.1321C17.3198 10.1321 17.0438 9.85569 17.0438 9.71748C17.0438 9.57927 17.0438 9.37195 17.1818 9.23374C17.3198 9.09553 17.4578 9.02642 17.6648 9.02642C17.8719 9.02642 18.0099 9.09553 18.0789 9.30285L19.6659 10.8232L23.7371 5.0874C23.7371 5.0874 24.0131 4.88008 24.1511 4.88008C24.2892 4.88008 24.4962 4.88008 24.6342 5.01829L24.5652 4.88008ZM26.9113 7.71341H38.1588C38.1588 7.71341 38.7798 7.43699 38.7798 7.09146C38.7798 6.74593 38.5038 6.46951 38.1588 6.46951H26.9113C26.9113 6.46951 26.2903 6.74593 26.2903 7.09146C26.2903 7.43699 26.5663 7.71341 26.9113 7.71341ZM26.9113 10.4776H31.7415C31.7415 10.4776 32.3625 10.2012 32.3625 9.85569C32.3625 9.51016 32.0865 9.23374 31.7415 9.23374H26.9803C26.9803 9.23374 26.3593 9.51016 26.3593 9.85569C26.3593 10.2012 26.6353 10.4776 26.9803 10.4776H26.9113ZM23.7371 13.1728L19.6659 18.9085L18.0789 17.3882C18.0789 17.3882 17.5268 17.25 17.3198 17.4573C17.1128 17.6646 17.1128 18.0102 17.3198 18.2175L19.3899 20.2215C19.3899 20.2215 19.6659 20.3598 19.8039 20.3598C19.8039 20.3598 20.149 20.2215 20.218 20.0833L24.7032 13.7947C24.7032 13.7947 24.8412 13.1728 24.5652 12.9654C24.4272 12.8272 24.2892 12.8272 24.0821 12.8272C23.9441 12.8272 23.7371 12.9654 23.6681 13.0346L23.7371 13.1728ZM26.9803 15.8679H38.2278C38.2278 15.8679 38.8489 15.5915 38.8489 15.2459C38.8489 14.9004 38.5728 14.624 38.2278 14.624H26.9803C26.9803 14.624 26.3593 14.9004 26.3593 15.2459C26.3593 15.5915 26.6353 15.8679 26.9803 15.8679ZM26.9803 18.6321H31.8105C31.8105 18.6321 32.4315 18.3557 32.4315 18.0102C32.4315 17.6646 32.1555 17.3882 31.8105 17.3882H26.9803C26.9803 17.3882 26.3593 17.6646 26.3593 18.0102C26.3593 18.3557 26.6353 18.6321 26.9803 18.6321ZM23.7371 21.3963L19.6659 27.1321L18.0789 25.6118C18.0789 25.6118 17.5268 25.4736 17.3198 25.6809C17.1128 25.8882 17.1128 26.2337 17.3198 26.4411L19.3899 28.4451C19.3899 28.4451 19.6659 28.5833 19.8039 28.5833C19.8039 28.5833 20.149 28.4451 20.218 28.3069L24.7032 22.0183C24.7032 22.0183 24.8412 21.3963 24.5652 21.189C24.4272 21.0508 24.2892 21.0508 24.0821 21.0508C23.9441 21.0508 23.7371 21.189 23.6681 21.2581L23.7371 21.3963ZM26.9803 24.0915H35.0537C35.0537 24.0915 35.6747 23.815 35.6747 23.4695C35.6747 23.124 35.3987 22.8476 35.0537 22.8476H26.9803C26.9803 22.8476 26.3593 23.124 26.3593 23.4695C26.3593 23.815 26.6353 24.0915 26.9803 24.0915ZM31.7415 25.6809H26.9113C26.9113 25.6809 26.2903 25.9573 26.2903 26.3028C26.2903 26.6484 26.5663 26.9248 26.9113 26.9248H31.7415C31.7415 26.9248 32.3625 26.6484 32.3625 26.3028C32.3625 25.9573 32.0865 25.6809 31.7415 25.6809ZM23.7371 29.5508L19.6659 35.2866L18.0789 33.7663C18.0789 33.7663 17.5268 33.628 17.3198 33.8354C17.1128 34.0427 17.1128 34.3882 17.3198 34.5955L19.3899 36.5996C19.3899 36.5996 19.6659 36.7378 19.8039 36.7378C19.8039 36.7378 20.149 36.5996 20.218 36.4614L24.7032 30.1728C24.7032 30.1728 24.8412 29.5508 24.5652 29.3435C24.4272 29.2053 24.2892 29.2053 24.0821 29.2053C23.9441 29.2053 23.7371 29.3435 23.6681 29.4817L23.7371 29.5508ZM26.9803 32.315H29.4644C29.4644 32.315 30.0854 32.0386 30.0854 31.6931C30.0854 31.3476 29.8094 31.0711 29.4644 31.0711H26.9803C26.9803 31.0711 26.3593 31.3476 26.3593 31.6931C26.3593 32.0386 26.6353 32.315 26.9803 32.315ZM31.7415 33.9045H26.9113C26.9113 33.9045 26.2903 34.1809 26.2903 34.5264C26.2903 34.8719 26.5663 35.1484 26.9113 35.1484H31.7415C31.7415 35.1484 32.3625 34.8719 32.3625 34.5264C32.3625 34.1809 32.0865 33.9045 31.7415 33.9045ZM62.103 5.84756C62.655 6.40041 62.931 7.09146 62.931 7.85163C62.931 8.61179 62.655 9.37195 62.103 9.85569L51.7525 20.2215V44.1321H53.6846C53.6846 44.1321 54.3056 44.4085 54.3056 44.7541V45.1687C54.3056 46.8272 53.6846 48.3476 52.5115 49.5224C51.3384 50.6972 49.8204 51.3191 48.1643 51.3191H6.07229C2.69113 51.3191 0 48.5549 0 45.2378V44.8232C0 44.8232 0.276013 44.2012 0.62103 44.2012H2.55312V12.4817C2.55312 9.85569 4.69222 7.78252 7.24534 7.78252H12.3516V4.05081C12.3516 1.97764 14.0077 0.25 16.1468 0.25H38.2968C40.3669 0.25 42.092 1.90854 42.092 4.05081V7.78252H47.1982C49.6824 7.78252 51.6835 9.71748 51.8905 12.1362L58.2388 5.77846C59.4118 4.74187 61.1369 4.74187 62.241 5.77846L62.103 5.84756ZM41.954 8.95732V21.9492L50.5794 13.311C50.5794 13.311 50.5794 13.2419 50.5794 13.1728V12.5508C50.5794 10.6159 48.9923 9.02642 47.0602 9.02642H41.954V8.95732ZM13.5246 39.2256H40.7809V31.2093C39.3319 32.5915 37.6068 33.5589 35.7437 34.1118L34.0876 34.5955H33.9496C33.8116 34.5955 33.6736 34.5955 33.5356 34.3882C33.3976 34.25 33.3286 34.0427 33.3976 33.8354L33.8806 32.1768C34.4326 30.1728 35.4677 28.376 36.9168 26.9248L40.8499 22.9858V4.05081C40.8499 2.59959 39.6769 1.4939 38.2968 1.4939H16.1468C14.6977 1.4939 13.5936 2.6687 13.5936 4.05081V39.2947L13.5246 39.2256ZM3.72618 12.4817V39.2256H12.3516V8.95732H7.24534C5.31325 8.95732 3.72618 10.5467 3.72618 12.4817ZM53.0635 45.3069H38.9869C38.7108 46.8963 37.3308 48.0711 35.7437 48.0711H18.5619C16.9748 48.0711 15.5947 46.8963 15.3187 45.3069H1.17306C1.31106 47.9329 3.45016 50.0061 6.07229 50.0061H48.1643C50.7864 50.0061 52.9945 47.9329 53.0635 45.3069ZM50.5794 44.1321V40.4695H3.72618V44.1321H15.8708C15.8708 44.1321 16.4918 44.4085 16.4918 44.7541C16.4918 45.9289 17.4578 46.8963 18.6309 46.8963H35.8127C36.3647 46.8963 36.9168 46.689 37.3308 46.2744C37.7448 45.8598 37.9518 45.3069 37.9518 44.7541C37.9518 44.4085 38.2278 44.1321 38.5728 44.1321H50.7174H50.5794ZM50.5794 21.4654L41.954 30.1037C41.954 30.1037 41.954 30.1037 41.954 30.2419V39.2947H50.5794V21.4654ZM61.7579 7.85163C61.7579 7.16057 61.3439 6.53862 60.7229 6.3313C60.1019 6.12398 59.3428 6.19309 58.9288 6.67683L37.7448 27.8923C36.4337 29.2053 35.4677 30.7947 34.9847 32.5915L34.7777 33.2134L35.3987 33.0061C37.1928 32.5224 38.7798 31.5549 40.0909 30.2419L61.2749 9.02642C61.2749 9.02642 61.7579 8.26626 61.7579 7.85163Z"
    fill="#1075FD" stroke="#1075FD" stroke-width="0.5" />
</svg>