<svg width="71" height="71" viewBox="0 0 71 71" fill="none" xmlns="http://www.w3.org/2000/svg">
  <g clip-path="url(#clip0_619_8627)">
    <path
      d="M57.94 70.44C64.84 70.44 70.43 64.84 70.44 57.94V12.5C70.44 5.6 64.84 0.01 57.94 0H12.5C5.6 0 0 5.6 0 12.5V57.94C0 64.84 5.6 70.43 12.5 70.44H57.94ZM65.44 12.5V57.94C65.44 62.08 62.08 65.43 57.94 65.44H27.22V5H57.94C62.08 5 65.43 8.36 65.44 12.5ZM5 57.94V12.5C5 8.36 8.36 5.01 12.5 5H22.22V65.44H12.5C8.36 65.44 5.01 62.08 5 57.94Z"
      fill="black" />
    <path
      d="M51.8201 35.2199L41.0301 46.0099C40.0801 46.9899 40.1001 48.5499 41.0701 49.5099C42.0401 50.4699 43.6001 50.4899 44.5801 49.5399L57.1301 36.9899C57.6001 36.5199 57.8601 35.8799 57.8601 35.2199C57.8601 34.5599 57.6001 33.9199 57.1301 33.4499L44.5801 20.8999C44.1201 20.4199 43.4701 20.1399 42.8001 20.1299C42.1301 20.1299 41.4801 20.3899 41.0101 20.8599C40.5301 21.3299 40.2701 21.9799 40.2801 22.6499C40.2801 23.3199 40.5601 23.9599 41.0401 24.4299L51.8301 35.2199H51.8201Z"
      fill="black" />
  </g>
  <defs>
    <clipPath id="clip0_619_8627">
      <rect width="70.44" height="70.44" fill="white" />
    </clipPath>
  </defs>
</svg>