<svg width="27" height="17" viewBox="0 0 27 17" fill="none" xmlns="http://www.w3.org/2000/svg">
  <path
    d="M9 17.6897C8.7075 17.6897 8.42625 17.5791 8.20125 17.369C7.7625 16.9378 7.7625 16.2413 8.20125 15.8101L11.9025 12.1727L8.20125 8.53526C7.7625 8.10407 7.7625 7.40754 8.20125 6.97636C8.64 6.54517 9.34875 6.54517 9.7875 6.97636L14.2875 11.3988C14.7262 11.83 14.7262 12.5265 14.2875 12.9577L9.7875 17.3801C9.57375 17.5901 9.28125 17.7007 8.98875 17.7007L9 17.6897ZM20.25 13.2672C19.6313 13.2672 19.125 12.7697 19.125 12.1616C19.125 11.5536 19.6313 11.056 20.25 11.056C22.7362 11.056 24.75 9.077 24.75 6.63362C24.75 4.19024 22.7362 2.21121 20.25 2.21121H6.75C4.26375 2.21121 2.25 4.19024 2.25 6.63362C2.25 9.077 4.26375 11.056 6.75 11.056H13.5C14.1187 11.056 14.625 11.5536 14.625 12.1616C14.625 12.7697 14.1187 13.2672 13.5 13.2672H6.75C3.02625 13.2672 0 10.2932 0 6.63362C0 2.97407 3.02625 0 6.75 0H20.25C23.9737 0 27 2.97407 27 6.63362C27 10.2932 23.9737 13.2672 20.25 13.2672Z"
    fill="#3C3C3C" />
</svg>