<?xml version="1.0" encoding="UTF-8"?>
<svg xmlns="http://www.w3.org/2000/svg" width="63" height="66" viewBox="0 0 63 66" fill="none">
  <path
    d="M46.1724 17.87H27.8283C27.6449 17.87 27.4761 17.9508 27.3367 18.0682C27.1679 18.2002 21.3198 22.9404 21.1584 23.0944L14.4004 28.583C14.3637 28.6124 14.3344 28.6491 14.3123 28.6931C14.1876 28.8178 14.1583 28.9939 14.1289 29.1627V59.7387C14.1289 62.2482 16.1761 64.288 18.6856 64.288H46.1798C48.6893 64.288 50.7291 62.2482 50.7291 59.7387V22.4194C50.7805 19.9759 48.6232 17.8187 46.1798 17.87H46.1724ZM22.1636 24.1951C22.1636 24.1951 22.2077 24.1584 22.2297 24.1364L26.6836 20.5189C26.3241 22.7129 26.0526 25.5672 26.0012 28.0767C26.0012 28.9572 25.1281 29.691 24.2622 29.5442C22.1857 29.2654 19.1405 28.8692 16.7338 28.6124L22.1636 24.2024V24.1951ZM49.2323 59.7314C49.2323 61.419 47.8601 62.7912 46.1724 62.7912H18.6856C16.9979 62.7912 15.6184 61.419 15.6184 59.7314V29.9772C18.3114 30.256 21.672 30.6889 24.0568 31.0118C25.7811 31.2906 27.4908 29.8451 27.4908 28.0987C27.5568 25.105 27.9457 21.5022 28.4227 19.3596H46.1724C46.9869 19.3596 47.7574 19.6751 48.3371 20.2548C48.9167 20.8345 49.2323 21.6049 49.2323 22.4194V59.7314Z"
    fill="#1075FD" stroke="#1075FD" stroke-width="0.5" />
  <path
    d="M45.3588 33.771H19.2074C18.2388 33.7857 18.2168 35.2459 19.2074 35.2605H45.3588C46.3273 35.2459 46.3493 33.7857 45.3588 33.771Z"
    fill="#1075FD" stroke="#1075FD" stroke-width="0.5" />
  <path
    d="M45.3588 39.8906H19.2074C18.2388 39.9053 18.2168 41.3655 19.2074 41.3802H45.3588C46.3273 41.3655 46.3493 39.9053 45.3588 39.8906Z"
    fill="#1075FD" stroke="#1075FD" stroke-width="0.5" />
  <path
    d="M31.393 28.2384H45.3492C45.7601 28.2384 46.0976 27.9082 46.0976 27.49V22.5004C46.0976 22.0895 45.7674 21.752 45.3492 21.752H31.393C30.9821 21.752 30.6445 22.0821 30.6445 22.5004V27.49C30.6445 27.9009 30.9747 28.2384 31.393 28.2384ZM32.1414 23.2488H44.6081V26.7489H32.1414V23.2488Z"
    fill="#1075FD" stroke="#1075FD" stroke-width="0.5" />
  <path
    d="M3.67974 26.037C3.09273 24.4521 3.89987 22.6837 5.48481 22.0967C5.6389 22.0527 31.284 12.4844 31.4308 12.4697C32.5167 12.1175 33.8082 12.4697 34.5786 13.3209C35.1436 13.8345 35.4738 15.2066 35.7746 15.889C36.1269 16.7989 37.499 16.2926 37.1761 15.3681L36.6111 13.8639C35.826 11.5011 33.023 10.2464 30.741 11.1196L15.5154 16.7769L4.97117 20.6952C2.61578 21.5757 1.41975 24.2026 2.28559 26.5507L11.2008 50.5301C11.5677 51.4326 12.9179 50.9484 12.6023 50.0091L3.67974 26.037Z"
    fill="#1075FD" stroke="#1075FD" stroke-width="0.5" />
  <path
    d="M61.5739 15.3462C61.0676 14.2455 60.1577 13.409 59.0277 12.9981L33.2652 3.42247C30.9025 2.54929 28.2756 3.76 27.4024 6.10805L25.9569 9.99701C25.6267 10.9216 27.0062 11.4279 27.3584 10.518L28.8039 6.62903C29.3909 5.04409 31.1593 4.23695 32.7515 4.82396L58.5214 14.3996C60.077 14.9353 60.9281 16.799 60.3265 18.3326L52.2697 40.0007C51.9395 40.9032 53.3043 41.4462 53.6712 40.5217L61.728 18.8536C62.1535 17.7015 62.1022 16.4615 61.5959 15.3535L61.5739 15.3462Z"
    fill="#1075FD" stroke="#1075FD" stroke-width="0.5" />
</svg>