<svg width="29" height="19" viewBox="0 0 29 19" fill="none" xmlns="http://www.w3.org/2000/svg">
  <path
    d="M9.66667 19C9.3525 19 9.05042 18.8813 8.80875 18.6556C8.3375 18.1925 8.3375 17.4444 8.80875 16.9813L12.7842 13.0744L8.80875 9.1675C8.3375 8.70437 8.3375 7.95625 8.80875 7.49312C9.28 7.03 10.0413 7.03 10.5125 7.49312L15.3458 12.2431C15.8171 12.7063 15.8171 13.4544 15.3458 13.9175L10.5125 18.6675C10.2829 18.8931 9.96875 19.0119 9.65458 19.0119L9.66667 19ZM21.75 14.25C21.0854 14.25 20.5417 13.7156 20.5417 13.0625C20.5417 12.4094 21.0854 11.875 21.75 11.875C24.4204 11.875 26.5833 9.74938 26.5833 7.125C26.5833 4.50063 24.4204 2.375 21.75 2.375H7.25C4.57958 2.375 2.41667 4.50063 2.41667 7.125C2.41667 9.74938 4.57958 11.875 7.25 11.875H14.5C15.1646 11.875 15.7083 12.4094 15.7083 13.0625C15.7083 13.7156 15.1646 14.25 14.5 14.25H7.25C3.25042 14.25 0 11.0556 0 7.125C0 3.19438 3.25042 0 7.25 0H21.75C25.7496 0 29 3.19438 29 7.125C29 11.0556 25.7496 14.25 21.75 14.25Z"
    fill="black" />
</svg>