<?xml version="1.0" encoding="UTF-8"?>
<svg xmlns="http://www.w3.org/2000/svg" width="60" height="55" viewBox="0 0 60 55" fill="none">
  <path fill-rule="evenodd" clip-rule="evenodd"
    d="M19.5654 37.4206C19.9553 37.5964 20.1151 38.03 19.9297 38.3875C19.7379 38.7449 19.2649 38.8914 18.875 38.7215C17.9227 38.2937 17.2771 37.4675 17.1365 36.5006L16.8041 34.2095C15.5066 33.8755 14.2729 33.4067 13.1032 32.8031L11.0962 34.2095C9.83062 35.0943 8.06008 34.9888 6.93512 33.9575L5.52253 32.6625C4.39757 31.6312 4.27613 30.008 5.24768 28.8478L6.78172 27.0078C6.12336 25.9354 5.60562 24.8045 5.24768 23.615L2.74848 23.3102C1.16331 23.1169 0 21.8922 0 20.4331V18.5931C0 17.134 1.1697 15.9093 2.75487 15.716L5.25407 15.4113C5.61841 14.2159 6.12975 13.0908 6.78811 12.0184L5.25407 10.1785C4.28891 9.01822 4.40396 7.39506 5.52892 6.36373L6.94791 5.06286C8.07287 4.03154 9.8434 3.9202 11.109 4.81089L13.116 6.21724C14.2857 5.61368 15.5129 5.1449 16.8169 4.81089L17.1492 2.51971C17.3602 1.06648 18.6961 0 20.2876 0H22.2947C23.8862 0 25.2221 1.07234 25.433 2.51971L25.7654 4.81089C27.063 5.1449 28.2966 5.61368 29.4663 6.21724L31.4733 4.81089C32.7389 3.9202 34.5094 4.03154 35.6344 5.06286L37.0534 6.36373C37.1812 6.49265 37.2771 6.5864 37.3857 6.72704C37.6414 7.04933 37.5583 7.50053 37.2068 7.73492C36.8552 7.96932 36.3631 7.89314 36.1074 7.57085C36.0499 7.49467 36.0051 7.45365 35.9348 7.3892L34.5158 6.08832C33.9469 5.5668 33.0649 5.51406 32.4321 5.95941L30.0096 7.65875C29.7603 7.83454 29.4024 7.8697 29.1147 7.70563C27.8619 7.00245 26.3215 6.40475 24.8834 6.09418C24.5702 6.02972 24.3145 5.78947 24.2761 5.4789L23.8734 2.70136C23.7712 1.97475 23.1064 1.44737 22.3011 1.44737H20.294C19.4887 1.44737 18.8239 1.98061 18.7216 2.70722L18.319 5.46719C18.287 5.76017 18.0505 6.018 17.7181 6.08832C16.3055 6.40475 14.714 6.99073 13.4931 7.69391C13.2183 7.85212 12.8603 7.85212 12.5855 7.66461L10.1566 5.95941C9.51742 5.51406 8.64174 5.5668 8.07287 6.08832L6.65388 7.3892C6.08501 7.91072 6.02748 8.71937 6.51326 9.29949L8.36689 11.5203C8.55864 11.7489 8.597 12.077 8.41802 12.3407C7.65101 13.4892 6.99904 14.9014 6.66027 16.2199C6.58996 16.507 6.3279 16.7414 5.98913 16.7766L2.95941 17.1457C2.16683 17.2395 1.59156 17.8489 1.59156 18.5873V20.4272C1.59156 21.1656 2.17322 21.775 2.95941 21.8687L5.96996 22.2379C6.28955 22.2672 6.57079 22.484 6.64749 22.7887C6.99265 24.0837 7.63183 25.5428 8.39885 26.662C8.57143 26.914 8.57143 27.2422 8.3605 27.4941L6.50687 29.7209C6.02109 30.3068 6.07862 31.1096 6.64749 31.6312L8.06647 32.932C8.63535 33.4535 9.51742 33.5063 10.1502 33.0609L12.5727 31.3616C12.822 31.1858 13.1799 31.1506 13.4676 31.3147C14.7204 32.0179 16.2608 32.6156 17.6989 32.9262C18.0121 32.9906 18.2678 33.2309 18.3062 33.5414L18.7089 36.319C18.7856 36.7936 19.1115 37.2155 19.5781 37.4265L19.5654 37.4206ZM19.3992 26.9961C15.6216 26.1991 12.8987 23.1052 12.8987 19.5072C12.8987 15.5929 16.1074 12.3173 20.294 11.8778C20.7287 11.8309 21.0355 11.4735 20.9907 11.075C20.9396 10.6765 20.5497 10.3953 20.1151 10.4363C15.1294 10.9637 11.3135 14.8604 11.3135 19.5072C11.3135 23.7849 14.5542 27.4648 19.0412 28.4083C19.4631 28.4962 19.8913 28.2559 19.9872 27.8633C20.0831 27.4766 19.8146 27.084 19.3928 26.9961H19.3992ZM27.504 9.61592C24.4295 9.61592 21.9239 11.9188 21.9239 14.7315V49.8844C21.9239 52.703 24.4359 55 27.504 55H54.4199C57.4944 55 60 52.6971 60 49.8844V18.1185C60 17.931 59.9233 17.7493 59.7699 17.6028L51.2943 9.83273C51.1473 9.69795 50.9492 9.61592 50.7319 9.61592H27.504ZM49.9393 11.0691H27.504C25.3052 11.0691 23.5027 12.7216 23.5027 14.7374V49.8903C23.5027 51.906 25.3052 53.5585 27.5104 53.5585H54.4199C56.6187 53.5585 58.4212 51.906 58.4212 49.8903V18.8451H50.7319C50.2972 18.8451 49.9393 18.5228 49.9393 18.1185V11.0691ZM57.3027 17.3919H51.5244V12.0946L57.3027 17.3919ZM27.1908 15.5343H39.3736C39.8082 15.5343 40.1598 15.2179 40.1598 14.8136C40.1598 14.4092 39.8082 14.0928 39.3736 14.0928H27.1908C26.7562 14.0928 26.4046 14.4092 26.4046 14.8136C26.4046 15.2179 26.7562 15.5343 27.1908 15.5343ZM27.1908 19.9877H46.2832C46.7178 19.9877 47.0694 19.6713 47.0694 19.267C47.0694 18.8627 46.7178 18.5462 46.2832 18.5462H27.1908C26.7562 18.5462 26.4046 18.8627 26.4046 19.267C26.4046 19.6713 26.7562 19.9877 27.1908 19.9877ZM28.6417 24.406C27.4081 24.406 26.4046 25.326 26.4046 26.457C26.4046 28.2794 28.8207 29.1993 30.2269 27.9102C31.6331 26.621 30.636 24.406 28.6417 24.406ZM29.1083 26.0351C28.6993 25.66 27.9834 25.9237 27.9834 26.4628C27.9834 27.0019 28.6929 27.2656 29.1083 26.8906C29.364 26.6562 29.364 26.2753 29.1083 26.0409V26.0351ZM28.6417 46.4271C30.6296 46.4271 31.6331 48.6421 30.2269 49.9313C28.8207 51.2204 26.4046 50.3004 26.4046 48.4781C26.4046 47.3413 27.4081 46.4213 28.6417 46.4213V46.4271ZM29.1083 48.0561C29.364 48.2905 29.364 48.6714 29.1083 48.9058C28.6993 49.2808 27.9834 49.0172 27.9834 48.4781C27.9834 47.9448 28.6929 47.6753 29.1083 48.0503V48.0561ZM28.6417 39.0907C30.6296 39.0907 31.6331 41.3057 30.2269 42.5948C28.8207 43.884 26.4046 42.964 26.4046 41.1416C26.4046 40.0107 27.4081 39.0907 28.6417 39.0907ZM29.1083 40.7138C29.364 40.9482 29.364 41.3291 29.1083 41.5635C28.6993 41.9385 27.9834 41.6748 27.9834 41.1357C27.9834 40.6025 28.6929 40.3271 29.1083 40.708V40.7138ZM28.6417 31.7483C27.4081 31.7483 26.4046 32.6683 26.4046 33.7993C26.4046 35.6217 28.8207 36.5417 30.2269 35.2525C31.6331 33.9633 30.636 31.7483 28.6417 31.7483ZM29.1083 33.3715C28.6993 32.9965 27.9834 33.2602 27.9834 33.7993C27.9834 34.3384 28.6929 34.6021 29.1083 34.227C29.364 33.9926 29.364 33.6118 29.1083 33.3774V33.3715ZM33.2311 27.1836H54.7395C55.1742 27.1836 55.5321 26.8613 55.5321 26.457C55.5321 26.0526 55.1806 25.7303 54.7395 25.7303H33.2311C32.7964 25.7303 32.4385 26.0526 32.4385 26.457C32.4385 26.8613 32.79 27.1836 33.2311 27.1836ZM33.2311 49.2105C32.7964 49.2105 32.4385 48.8882 32.4385 48.4839C32.4385 48.0796 32.79 47.7573 33.2311 47.7573H54.7395C55.1742 47.7573 55.5321 48.0796 55.5321 48.4839C55.5321 48.8882 55.1806 49.2105 54.7395 49.2105H33.2311ZM33.2311 41.8682C32.7964 41.8682 32.4385 41.5459 32.4385 41.1416C32.4385 40.7373 32.79 40.415 33.2311 40.415H54.7395C55.1742 40.415 55.5321 40.7373 55.5321 41.1416C55.5321 41.5459 55.1806 41.8682 54.7395 41.8682H33.2311ZM33.2311 34.5259H54.7395C55.1742 34.5259 55.5321 34.2036 55.5321 33.7993C55.5321 33.395 55.1806 33.0727 54.7395 33.0727H33.2311C32.7964 33.0727 32.4385 33.4008 32.4385 33.7993C32.4385 34.1977 32.79 34.52 33.2311 34.52V34.5259Z"
    fill="#1075FD" />
</svg>