<?xml version="1.0" encoding="UTF-8"?>
<svg xmlns="http://www.w3.org/2000/svg" width="52" height="63" viewBox="0 0 52 63" fill="none">
  <path
    d="M18.2701 0C18.1384 0 18.0129 0.0252 17.8938 0.0756C8.06575 4.1706 1.26078 13.3434 0.156934 23.9778C-0.946913 34.6059 3.83224 44.9946 12.6066 51.0363C16.031 53.3925 19.8506 54.9423 23.7956 55.6605V61.0281H18.3767C17.8373 61.0281 17.4046 61.4691 17.4046 62.0109C17.4046 62.2755 17.5049 62.5212 17.6868 62.7102C17.8687 62.8929 18.1195 63 18.3767 63H39.6383C39.8954 63 40.1463 62.8929 40.3282 62.7102C40.5101 62.5212 40.6167 62.2755 40.6104 62.0109C40.6104 61.4691 40.1714 61.0344 39.6383 61.0281H34.2131V55.6605C36.9602 55.1565 39.6571 54.2556 42.2098 52.9389C42.4418 52.8192 42.6174 52.6113 42.699 52.3656C42.7805 52.1136 42.7554 51.8427 42.6362 51.6096C42.3916 51.1245 41.8021 50.9355 41.3192 51.1812C32.4821 55.7172 21.8952 55.0368 13.7104 49.4046C5.52565 43.7724 1.07263 34.0956 2.10121 24.1794C3.1298 14.2632 9.47692 5.7141 18.6464 1.89C19.1481 1.6821 19.3802 1.1025 19.1732 0.6048C19.0227 0.2394 18.6652 0 18.2701 0ZM29.0075 3.8997C16.3195 3.8997 6.01485 14.2569 6.01485 26.9955C6.01485 39.7341 16.3195 50.085 29.0075 50.085C41.6955 50.085 52.0001 39.7341 52.0001 26.9955C52.0001 20.3994 49.2405 14.4522 44.8189 10.2375C44.7624 10.1682 44.6997 10.1115 44.6307 10.0548C40.5289 6.2307 35.0347 3.8934 29.0075 3.8934V3.8997ZM29.0075 5.8653C33.6236 5.8653 37.8822 7.3521 41.3442 9.8784H38.478C38.1519 9.8784 37.8445 10.0422 37.6627 10.3194L35.9128 12.9717L34.1692 13.2489C33.7239 13.3182 33.3853 13.6836 33.3413 14.1372L32.9964 18.0558C32.965 18.4212 33.1406 18.774 33.4417 18.9693L36.0633 20.6451L35.8626 22.8312C35.825 23.2155 36.0194 23.5872 36.3518 23.7762L39.9707 25.8237L39.7575 29.2131C39.7324 29.5407 39.8829 29.862 40.1463 30.0636L46.1234 34.587C46.2927 34.713 46.4997 34.7823 46.7067 34.7823H48.5694C45.4899 42.6006 37.8947 48.1257 29.0075 48.1257C20.1203 48.1257 12.9515 42.903 9.71525 35.4249L13.8108 35.3682L15.6672 36.729L16.5578 39.9609C16.6143 40.1625 16.7335 40.3452 16.8965 40.4775L22.4095 44.7867C22.698 45.0135 23.0931 45.0576 23.4255 44.8938L27.3454 43.0479C27.7594 42.8463 27.9852 42.3864 27.8848 41.9328L27.0381 38.3166L31.3845 34.4043C31.5288 34.272 31.6291 34.1019 31.6793 33.9066L33.5922 26.2395C33.6549 25.9938 33.6173 25.7292 33.4919 25.5087L31.579 22.176C31.4033 21.8673 31.0772 21.6783 30.726 21.6783H15.2031L13.8233 18.5787C13.6665 18.2133 13.3028 17.9802 12.9076 17.9865L9.94731 18.0621C13.2965 10.8549 20.5656 5.8653 29.0138 5.8653H29.0075ZM39.0048 11.844H43.6711C47.5973 15.6807 50.037 21.0483 50.037 26.9955C50.037 29.0115 49.7548 30.9645 49.228 32.8167H47.0328L41.7331 28.8036L41.9589 25.3323C41.984 24.9606 41.7895 24.6015 41.4634 24.4125L37.8634 22.3713L38.0578 20.2293C38.0891 19.8639 37.9198 19.5048 37.6125 19.3095L35.0034 17.6337L35.2292 15.0759L36.6403 14.8491C36.91 14.805 37.1484 14.6475 37.2989 14.4207L39.0048 11.8503V11.844ZM12.293 19.9773L13.6728 23.0643C13.8296 23.4108 14.1745 23.6439 14.5634 23.6439H30.1552L31.5915 26.1324L29.8479 33.1191L25.2883 37.2267C25.0186 37.4724 24.9057 37.8378 24.9935 38.1843L25.79 41.5926L23.137 42.84L18.3579 39.1041L17.4673 35.847C17.4046 35.6328 17.2791 35.4501 17.0972 35.3178L14.6951 33.5601C14.5258 33.4341 14.3125 33.3711 14.0993 33.3711L8.97517 33.453C8.3229 31.4181 7.97167 29.2446 7.97167 26.9829C7.97167 24.5511 8.37934 22.2138 9.13197 20.0403L12.2867 19.9647L12.293 19.9773ZM25.7587 55.9503C27.9162 56.196 30.0925 56.196 32.25 55.9503V61.0281H25.7587V55.9503Z"
    fill="#1075FD" />
</svg>