<svg width="21" height="18" viewBox="0 0 21 18" fill="none" xmlns="http://www.w3.org/2000/svg">
<g clip-path="url(#clip0_2141_6550)">
<path d="M20.9998 9.01898C20.9998 8.25764 20.3938 7.64099 19.6456 7.64099H4.79363L10.2984 2.4184C10.8638 1.91888 10.9213 1.0473 10.4304 0.475435C9.93953 -0.0998761 9.08301 -0.158441 8.52102 0.341081C8.49732 0.361751 8.47362 0.385866 8.44993 0.40998L0.429774 8.0096C-0.11867 8.52979 -0.145754 9.40137 0.362065 9.95601C0.382378 9.98012 0.406076 10.0008 0.429774 10.0249L8.44993 17.6314C8.99837 18.1516 9.85489 18.1206 10.3627 17.566C10.8705 17.0113 10.8434 16.1363 10.2984 15.6195L4.79363 10.4004H19.6456C20.3938 10.4004 20.9998 9.78376 20.9998 9.02242V9.01898Z" fill="#FFFFFF"/>
</g>
<defs>
<clipPath id="clip0_2141_6550">
<rect width="21" height="18" fill="white"/>
</clipPath>
</defs>
</svg>
