<svg width="22" height="22" viewBox="0 0 22 22" fill="none" xmlns="http://www.w3.org/2000/svg">
  <path fill-rule="evenodd" clip-rule="evenodd"
    d="M11.0012 0C17.072 0 22.0023 4.928 22.0023 11.0012C22.0023 17.0743 17.0743 22.0023 11.0012 22.0023C4.928 22.0023 0 17.072 0 11.0012C0 4.93035 4.928 0 11.0012 0ZM11.0012 1.46667C5.7376 1.46667 1.46667 5.7376 1.46667 11.0012C1.46667 16.2647 5.7376 20.5333 10.9988 20.5333C16.2601 20.5333 20.531 16.2624 20.531 11.0012C20.531 5.73995 16.2624 1.46667 11.0012 1.46667ZM10.2667 4.4C10.2667 3.99403 10.5952 3.66784 10.9988 3.66784C11.4025 3.66784 11.731 3.99637 11.731 4.4V10.3934C11.731 10.5882 11.8084 10.7735 11.9445 10.912L15.1829 14.1481C15.4692 14.4343 15.4692 14.899 15.1829 15.1853C14.8966 15.4716 14.432 15.4716 14.1457 15.1853L10.9097 11.9469C10.4966 11.5339 10.2643 10.9754 10.2643 10.3934V4.4H10.2667Z"
    fill="white" />
</svg>