<svg width="16" height="17" viewBox="0 0 16 17" fill="none" xmlns="http://www.w3.org/2000/svg">
  <path
    d="M5.07084 17C4.01945 17 2.96806 16.6013 2.16691 15.8081C0.564595 14.2175 0.564595 11.6311 2.16691 10.0426L8.32383 3.93271C8.82008 3.44008 9.48035 3.16871 10.1827 3.16871C10.885 3.16871 11.5453 3.44008 12.0415 3.93271C13.0677 4.94929 13.0677 6.60462 12.0415 7.62328L6.00237 13.6205C5.74583 13.8751 5.32948 13.8751 5.07294 13.6205C4.8164 13.3658 4.8164 12.9525 5.07294 12.6978L11.1142 6.70064C11.3623 6.45432 11.499 6.1266 11.499 5.778C11.499 5.4294 11.3623 5.10167 11.1142 4.85535C10.8661 4.60904 10.5359 4.47335 10.1848 4.47335C9.83362 4.47335 9.50348 4.60904 9.25536 4.85535L3.10054 10.9673C2.0113 12.0486 2.0113 13.8062 3.10054 14.8875C4.18977 15.9688 5.96031 15.9688 7.04955 14.8875L13.4378 8.54592C15.1032 6.89268 15.1032 4.20199 13.4378 2.54875C11.7724 0.895506 9.0619 0.895506 7.3965 2.54875L1.12183 8.77345C0.865291 9.02812 0.448942 9.02812 0.192404 8.77345C-0.0641346 8.51879 -0.0641346 8.10548 0.192404 7.85081L6.46287 1.62402C7.52057 0.578217 8.92312 0 10.414 0C11.9048 0 13.3095 0.578217 14.363 1.62402C15.4165 2.66982 15.9989 4.06422 15.9989 5.5442C15.9989 7.02419 15.4165 8.41859 14.363 9.46439L7.97477 15.806C7.17361 16.6013 6.12222 16.9979 5.07084 16.9979V17Z"
    fill="#2F5496" />
</svg>