<svg width="23" height="25" viewBox="0 0 23 25" fill="none" xmlns="http://www.w3.org/2000/svg">
  <g clip-path="url(#clip0_1693_11587)">
    <path
      d="M16.3329 22.2823H0.473866C0.212657 22.2823 0 22.0665 0 21.7992V0.446073C0 0.178738 0.211686 -0.0371094 0.473866 -0.0371094H13.8946C14.1558 -0.0371094 14.3684 0.178738 14.3684 0.446073C14.3684 0.713407 14.1568 0.929255 13.8946 0.929255H0.946762V21.318H16.3338C16.595 21.318 16.8077 21.5338 16.8077 21.8011C16.8077 22.0685 16.596 22.2843 16.3338 22.2843H16.3319L16.3329 22.2823Z"
      fill="white" stroke="white" stroke-width="0.5" />
    <path
      d="M19.0185 19.6056C18.7747 19.6056 18.5762 19.3902 18.5762 19.1234V4.90914C18.5762 4.64337 18.7738 4.427 19.0185 4.427C19.2632 4.427 19.4608 4.64239 19.4608 4.90914V19.1234C19.4608 19.3892 19.2632 19.6056 19.0185 19.6056Z"
      fill="white" stroke="white" stroke-width="0.5" />
    <path
      d="M18.9786 5.32003H13.7563C13.488 5.32003 13.2695 5.11729 13.2695 4.86618C13.2695 4.85222 13.2695 4.83734 13.2715 4.82339L13.7204 0.374097C13.7453 0.124847 13.9827 -0.0583707 14.25 -0.0351198C14.3627 -0.0248894 14.4684 0.0206824 14.5482 0.0960154L19.3197 4.54531C19.5092 4.72202 19.5092 5.0094 19.3197 5.18704C19.2289 5.27167 19.1063 5.3191 18.9776 5.32003H18.9786ZM14.2909 4.41232H17.8047L14.5931 1.41853L14.2909 4.41232Z"
      fill="white" stroke="white" stroke-width="0.5" />
    <path
      d="M9.2934 18.7127C5.62825 18.7147 2.65626 15.7184 2.6543 12.0197C2.65233 8.321 5.62137 5.32181 9.28653 5.31982C11.0479 5.31982 12.7367 6.02429 13.9816 7.28065C16.0945 9.41189 16.5334 12.7262 15.0508 15.339C13.8687 17.4226 11.6733 18.7097 9.2934 18.7117V18.7127ZM9.28947 6.28587C6.15352 6.28587 3.6106 8.84911 3.60961 12.0138C3.60863 15.1784 6.1496 17.7447 9.28554 17.7456C10.4382 17.7456 11.5624 17.3929 12.5108 16.732C13.2099 16.2436 13.7931 15.6045 14.2163 14.8604C15.4858 12.6261 15.1087 9.78939 13.3012 7.9653C12.2399 6.88729 10.7946 6.28191 9.28849 6.28488L9.28947 6.28587Z"
      fill="white" stroke="white" stroke-width="0.5" />
    <path
      d="M20.2992 24.9618H20.2495C19.3559 24.9428 18.3741 24.4299 17.6236 23.5891L12.5056 17.8588C12.3242 17.6633 12.3501 17.3697 12.5626 17.2038C12.7751 17.037 13.0944 17.0608 13.2748 17.2563C13.279 17.261 13.2831 17.2649 13.2862 17.2696L18.4042 22.9999C18.9536 23.6158 19.6866 24.0209 20.2712 24.0333C20.5273 24.039 20.7305 23.9675 20.8735 23.8207C21.338 23.346 21.0943 22.1029 20.0722 21.1477L14.4887 15.9369C14.2907 15.7567 14.2887 15.4622 14.4846 15.2791C14.6805 15.097 15.0009 15.0951 15.1999 15.2753C15.203 15.2782 15.2061 15.281 15.2092 15.2839L20.7927 20.4956C21.4084 21.0704 21.847 21.7797 22.0273 22.4918C22.2274 23.2802 22.0844 23.9733 21.6261 24.4413C21.2923 24.7826 20.8341 24.9628 20.2992 24.9628V24.9618Z"
      fill="white" stroke="white" stroke-width="0.5" />
  </g>
  <defs>
    <clipPath id="clip0_1693_11587">
      <rect width="23" height="25.0557" fill="white" transform="translate(0 -0.0371094)" />
    </clipPath>
  </defs>
</svg>