<svg width="21" height="15" viewBox="0 0 21 15" fill="none" xmlns="http://www.w3.org/2000/svg">
  <path
    d="M18.1641 0.0146484C18.2671 0.0242669 18.3691 0.0386357 18.4697 0.0576172C18.5704 0.0766109 18.6698 0.0997953 18.7676 0.12793C19.2565 0.268569 19.7051 0.522634 20.0781 0.875C20.6752 1.43893 21.0039 2.18615 21.0039 2.97852V12.0234C21.0039 12.8158 20.6751 13.563 20.0781 14.127C19.7796 14.4089 19.4329 14.6282 19.0557 14.7764C18.8672 14.8504 18.671 14.9064 18.4697 14.9443C18.2682 14.9823 18.0614 15.0019 17.8516 15.002H3.15332C3.04831 15.002 2.94406 14.9969 2.84082 14.9873C2.11933 14.9201 1.44815 14.6203 0.925781 14.127C0.766099 13.9761 0.626993 13.8112 0.506836 13.6367C0.17785 13.159 0 12.6037 0 12.0234V2.97852C0 2.92918 0.00135725 2.88002 0.00390625 2.83105C0.0140897 2.63499 0.0449069 2.44227 0.0947266 2.25488C0.10728 2.20768 0.120753 2.16074 0.135742 2.11426C0.243511 1.78002 0.416462 1.46754 0.643555 1.18555C0.729793 1.07845 0.821553 0.973919 0.923828 0.876953C0.993259 0.811375 1.0652 0.749073 1.13965 0.69043C1.16751 0.668483 1.19707 0.648887 1.22559 0.62793C1.27539 0.591332 1.32524 0.555028 1.37695 0.521484C1.407 0.501991 1.43809 0.484269 1.46875 0.46582C1.52202 0.433767 1.57585 0.40288 1.63086 0.374023C1.66272 0.357308 1.69513 0.3418 1.72754 0.326172C1.77585 0.302877 1.82456 0.280619 1.87402 0.259766C1.9183 0.241096 1.96268 0.222741 2.00781 0.206055C2.05192 0.189746 2.09673 0.175524 2.1416 0.161133C2.18637 0.146773 2.2309 0.131569 2.27637 0.119141C2.33113 0.104171 2.3867 0.0922113 2.44238 0.0800781C2.47878 0.0721491 2.51501 0.0633443 2.55176 0.0566406C2.64643 0.0393701 2.74214 0.0256101 2.83887 0.0166016L3.15137 0.00195312H17.8486L17.8516 0C17.9566 1.12623e-05 18.0608 0.00500293 18.1641 0.0146484ZM12.6602 8.74121C12.1373 9.1794 11.4664 9.42183 10.7715 9.42188C10.0764 9.42188 9.40482 9.18166 8.88184 8.74121L8.33301 8.28027L2.13965 13.4795C2.28904 13.5725 2.45107 13.6438 2.62012 13.6924C2.66995 13.7067 2.72053 13.7183 2.77148 13.7285C2.85216 13.7448 2.93392 13.7569 3.0166 13.7627C3.06134 13.7658 3.10629 13.7676 3.15137 13.7676H17.8467C18.3348 13.7676 18.7949 13.588 19.1436 13.2607L13.21 8.28027L12.6602 8.74121ZM1.39453 2.45312C1.35038 2.58131 1.32321 2.71201 1.3125 2.8457C1.30895 2.89027 1.30762 2.93521 1.30762 2.98047V12.0264C1.30766 12.1785 1.32973 12.3286 1.37109 12.4746L7.35059 7.45508L1.39453 2.45312ZM14.1943 7.45508H14.1973L19.6943 12.0693V2.98047C19.6943 2.93531 19.6928 2.88989 19.6885 2.84473L14.1943 7.45508ZM3.15137 1.2373C2.86167 1.2373 2.5748 1.30372 2.31641 1.42773C2.27955 1.44544 2.24267 1.46433 2.20703 1.48438L8.75586 6.97949L8.75977 6.9834L8.76465 6.9873L8.77539 6.99805L9.75391 7.81934C9.81079 7.86684 9.87189 7.90844 9.93457 7.94727C10.0279 8.00509 10.1262 8.05442 10.2295 8.0918C10.4021 8.15427 10.5861 8.1875 10.7734 8.1875C10.8202 8.1875 10.8668 8.18569 10.9131 8.18164C11.052 8.16947 11.1879 8.13866 11.3174 8.0918C11.4204 8.05451 11.5182 8.00489 11.6113 7.94727C11.6743 7.90833 11.7359 7.86702 11.793 7.81934L12.7715 6.99805L12.7803 6.98926L19.0889 1.69434C19.0039 1.62024 18.9125 1.55477 18.8164 1.49805C18.6242 1.38458 18.4122 1.30597 18.1895 1.2666C18.1338 1.25677 18.0774 1.25007 18.0205 1.24512C17.9637 1.24015 17.9064 1.2373 17.8486 1.2373H3.15137Z"
    fill="white" />
</svg>