<svg width="144" height="144" viewBox="0 0 144 144" fill="none" xmlns="http://www.w3.org/2000/svg">
<g clip-path="url(#clip0_701_8296)">
<path d="M137.526 101.877C126.618 125.762 103.034 142.646 75.3761 143.922L40.2676 105.456H103.731C103.731 89.1938 93.6302 75.5276 79.9575 71.6411C85.6245 68.7425 89.5029 62.8477 89.5029 56.0464C89.5029 51.53 87.7924 47.4157 84.9849 44.3104L137.526 101.875V101.877Z" fill="#2F4066"/>
<path d="M137.526 101.877L84.985 44.3121C87.7941 47.4174 89.503 51.5333 89.503 56.048C89.503 62.8494 85.6246 68.7442 79.9577 71.6428C93.6303 75.5293 103.731 89.1938 103.731 105.457H40.2677L75.3763 143.924C74.2565 143.976 73.1319 144.002 71.9992 144.002C32.236 144 0 111.764 0 71.9992C0 32.2344 32.236 0 71.9992 0C111.762 0 143.998 32.236 143.998 71.9992C143.998 82.6577 141.682 92.7759 137.526 101.875V101.877Z" fill="#036AC5"/>
<path d="M89.5047 56.048C89.5047 62.8493 85.6264 68.7442 79.9594 71.6428C77.5718 72.8634 74.8669 73.5534 72.0009 73.5534C69.1348 73.5534 66.4299 72.865 64.0424 71.6428C58.3754 68.7442 54.4971 62.8493 54.4971 56.048C54.4971 46.3806 62.3335 38.5442 72.0009 38.5442C77.1145 38.5442 81.7171 40.7381 84.9168 44.2356L84.9867 44.3121C87.7958 47.4173 89.5047 51.5333 89.5047 56.048Z" fill="white"/>
<path d="M103.732 105.456H40.2676C40.2676 89.1938 50.3679 75.5276 64.0405 71.6412C66.5843 70.9169 69.2502 70.5328 71.999 70.5328C74.7479 70.5328 77.4137 70.9169 79.9575 71.6412C93.6302 75.5276 103.731 89.1922 103.731 105.456H103.732Z" fill="white"/>
</g>
<defs>
<clipPath id="clip0_701_8296">
<rect width="144" height="144" fill="white"/>
</clipPath>
</defs>
</svg>
